HIERARCHY
ROOT Hips
{
	OFFSET 0.000000 0.000000 0.000000 
	CHANNELS 6 Xposition Yposition Zposition Zrotation Yrotation Xrotation
	JOINT LeftUpLeg
	{
		OFFSET 1.363060 -1.794630 0.839290 
		CHANNELS 3 Zrotation Yrotation Xrotation
		JOINT LeftLeg
		{
			OFFSET 2.448110 -6.726130 0.000000 
			CHANNELS 3 Zrotation Yrotation Xrotation
			JOINT LeftFoot
			{
				OFFSET 2.562200 -7.039590 0.000000 
				CHANNELS 3 Zrotation Yrotation Xrotation
				JOINT LeftToeBase
				{
					OFFSET 0.157640 -0.433110 2.322550 
					CHANNELS 3 Zrotation Yrotation Xrotation
					End Site
					{
						OFFSET 0.000000 0.000000 0.000000 
					}
				}
			}
		}
	}
	JOINT RightUpLeg
	{
		OFFSET -1.305520 -1.794630 0.839290 
		CHANNELS 3 Zrotation Yrotation Xrotation
		JOINT RightLeg
		{
			OFFSET -2.542530 -6.985550 0.000000 
			CHANNELS 3 Zrotation Yrotation Xrotation
			JOINT RightFoot
			{
				OFFSET -2.568260 -7.056230 0.000000 
				CHANNELS 3 Zrotation Yrotation Xrotation
				JOINT RightToeBase
				{
					OFFSET -0.164730 -0.452590 2.363150 
					CHANNELS 3 Zrotation Yrotation Xrotation
					End Site
					{
						OFFSET 0.000000 0.000000 0.000000 
					}
				}
			}
		}
	}
	JOINT Spine
	{
		OFFSET 0.028270 2.035590 -0.193380 
		CHANNELS 3 Zrotation Yrotation Xrotation
		JOINT Spine1
		{
			OFFSET 0.056720 2.048850 -0.042750 
			CHANNELS 3 Zrotation Yrotation Xrotation
			JOINT Neck1
			{
				OFFSET -0.054170 1.746240 0.172020 
				CHANNELS 3 Zrotation Yrotation Xrotation
				JOINT Head
				{
					OFFSET 0.104070 1.761360 -0.123970 
					CHANNELS 3 Zrotation Yrotation Xrotation
					End Site
					{
						OFFSET 0.000000 0.000000 0.000000 
					}
				}
			}
			JOINT LeftArm
			{
				OFFSET 3.362410 1.200890 -0.311210 
				CHANNELS 3 Zrotation Yrotation Xrotation
				JOINT LeftForeArm
				{
					OFFSET 4.983000 -0.000000 -0.000000 
					CHANNELS 3 Zrotation Yrotation Xrotation
					JOINT LeftHand
					{
						OFFSET 3.483560 -0.000000 -0.000000 
						CHANNELS 3 Zrotation Yrotation Xrotation
						JOINT LeftHandIndex1
						{
							OFFSET 0.715260 -0.000000 -0.000000 
							CHANNELS 3 Zrotation Yrotation Xrotation
							End Site
							{
								OFFSET 0.000000 0.000000 0.000000 
							}
						}
					}
				}
			}
			JOINT RightArm
			{
				OFFSET -3.136600 1.374050 -0.404650 
				CHANNELS 3 Zrotation Yrotation Xrotation
				JOINT RightForeArm
				{
					OFFSET -5.241900 -0.000000 -0.000000 
					CHANNELS 3 Zrotation Yrotation Xrotation
					JOINT RightHand
					{
						OFFSET -3.444170 -0.000000 -0.000000 
						CHANNELS 3 Zrotation Yrotation Xrotation
						JOINT RightHandIndex1
						{
							OFFSET -0.622530 -0.000000 -0.000000 
							CHANNELS 3 Zrotation Yrotation Xrotation
							End Site
							{
								OFFSET 0.000000 0.000000 0.000000 
							}
						}
					}
				}
			}
		}
	}
}
MOTION
Frames: 9
Frame Time: 0.041667
11.111984 16.827205 31.432076 -179.588298 0.316379 -134.708176 5.702318 21.975736 -41.321722 1.878408 6.605935 23.261209 7.895103 -8.540917 23.420924 2.857100 10.460100 30.479800 -8.735154 -12.104765 -39.320758 -2.355942 -8.251602 25.522920 3.557348 -11.611310 -4.209099 -1.782500 8.397600 -23.928300 1.124981 7.229697 -1.958143 -11.384255 3.620292 -4.707600 4.048689 -8.360765 5.483507 -1.684700 -4.103700 -1.917900 73.389576 -52.383999 -129.540920 -1.397503 -16.014355 1.282813 -3.781626 -4.131753 -5.776390 -7.125000 0.000000 0.000000 -22.284913 23.141929 -63.901211 -1.679438 10.528574 -2.482364 8.139626 10.062685 12.437598 7.125000 0.000000 0.000000 
11.115153 16.733516 31.238783 -179.124122 0.675883 -134.892886 5.756443 22.701690 -41.343018 2.143627 7.016397 24.478088 8.201871 -9.597897 22.521423 2.405200 9.663500 27.893800 -8.499844 -12.043692 -39.236698 -2.500772 -8.547514 26.467779 3.105136 -10.663964 -4.216989 -2.079200 9.029100 -25.886300 0.848791 9.074598 -1.928896 -11.552591 6.825265 -5.585758 3.837384 -8.434037 5.563359 -1.863600 -4.137600 -1.875600 73.842549 -52.492702 -131.315372 -1.499357 -16.304697 1.323364 -3.824109 -4.302257 -6.086016 -7.125000 0.000000 0.000000 -22.916041 23.002691 -64.723481 -1.763923 10.699034 -2.521573 8.093543 10.332755 11.691380 7.125000 0.000000 0.000000 
11.116526 16.635074 31.041372 -178.717676 0.969924 -134.975319 5.844787 23.363095 -41.351298 2.420783 7.417172 25.696351 8.526109 -10.745822 21.616208 2.081600 9.034000 25.901800 -8.292136 -11.958782 -39.145563 -2.631632 -8.841100 27.346945 2.683403 -9.783639 -4.365894 -2.388100 9.631600 -27.791800 0.839956 9.422140 -1.964993 -11.546563 6.951654 -5.912413 3.631040 -8.513042 5.707062 -2.025000 -4.167400 -1.770800 74.178061 -52.587187 -132.535823 -1.515022 -16.700025 1.322457 -3.817698 -4.466407 -6.618372 -7.125000 0.000000 0.000000 -23.473302 23.010607 -65.462187 -1.877743 10.910100 -2.574536 8.064287 10.544972 10.941397 7.125000 0.000000 0.000000 
11.116632 16.532619 30.839524 -178.327046 1.292167 -134.951073 5.915768 23.998910 -41.388154 2.712329 7.813565 26.905215 8.826255 -11.857837 20.641479 1.800100 8.436600 24.048200 -8.144797 -11.792591 -39.077565 -2.752456 -9.114395 28.157327 2.315481 -9.017488 -4.681406 -2.692500 10.179800 -29.560900 0.818939 9.724354 -2.000104 -11.524077 7.068662 -6.147459 3.474211 -8.600622 5.929162 -2.132900 -4.193300 -1.590600 74.425954 -52.654360 -133.242234 -1.443015 -17.199267 1.274575 -3.758315 -4.624299 -7.443856 -7.125000 0.000000 0.000000 -23.928321 23.186710 -66.155786 -2.023413 11.160408 -2.641392 8.083536 10.661916 10.276804 7.125000 0.000000 0.000000 
11.115681 16.427311 30.632078 -177.960178 1.627636 -134.816256 5.969223 24.590399 -41.442873 3.013330 8.198342 28.075589 9.086560 -12.863866 19.596733 1.526800 7.801800 22.113800 -8.044003 -11.578268 -39.026187 -2.859045 -9.361329 28.878313 2.011185 -8.390082 -5.148515 -2.989600 10.678300 -31.202300 0.786679 9.982953 -2.029919 -11.517198 7.179015 -6.302392 3.357310 -8.677114 6.199250 -2.197500 -4.208600 -1.372900 74.656508 -52.751304 -133.719633 -1.324440 -17.780140 1.184356 -3.659298 -4.788367 -8.530926 -7.125000 0.000000 0.000000 -24.284004 23.473513 -66.769594 -2.189390 11.431688 -2.717252 8.138039 10.709728 9.699426 7.125000 0.000000 0.000000 
11.113252 16.320420 30.417872 -177.627665 1.942752 -134.588363 6.023060 25.102392 -41.482459 3.321775 8.567049 29.172765 9.304515 -13.690381 18.399679 1.209000 6.975400 19.642400 -7.974084 -11.356479 -38.959915 -2.947320 -9.575160 29.488658 1.762044 -7.886682 -5.727150 -3.266200 11.114000 -32.665300 0.747667 10.198901 -2.056009 -11.535914 7.280933 -6.406232 3.264808 -8.769588 6.534103 -2.238000 -4.226000 -1.120800 74.930421 -52.941615 -134.304173 -1.211628 -18.406030 1.069554 -3.549249 -4.967746 -9.761837 -7.125000 0.000000 0.000000 -24.522423 23.847616 -67.234099 -2.378152 11.718798 -2.802974 8.205413 10.700870 9.253657 7.125000 0.000000 0.000000 
11.108498 16.212894 30.195956 -177.329954 2.206003 -134.280767 6.096319 25.505535 -41.480821 3.643071 8.922090 30.177348 9.483618 -14.255387 16.898860 0.798200 5.702600 15.923800 -7.924110 -11.137197 -38.862062 -3.021230 -9.764467 30.015730 1.544285 -7.461104 -6.405672 -3.501400 11.465500 -33.866500 0.706848 10.364053 -2.079107 -11.571357 7.367631 -6.470942 3.158268 -8.876421 6.929846 -2.286400 -4.246300 -0.847800 75.249609 -53.235639 -135.115251 -1.124965 -19.054528 0.943402 -3.446754 -5.160105 -11.001336 -7.125000 0.000000 0.000000 -24.656828 24.311388 -67.497276 -2.596977 12.031605 -2.901887 8.249771 10.660959 8.896769 7.125000 0.000000 0.000000 
11.101316 16.106319 29.965167 -177.065583 2.416229 -133.910835 6.201560 25.787540 -41.403283 3.939064 9.236682 31.053225 9.696561 -14.847971 15.460402 0.519200 4.618000 12.822300 -7.900049 -10.902329 -38.705672 -3.083196 -9.934808 30.475290 1.345933 -7.090815 -7.167455 -3.696300 11.744900 -34.835500 0.666887 10.473839 -2.100005 -11.605795 7.435240 -6.499230 3.021088 -8.981639 7.380933 -2.356400 -4.262300 -0.557500 75.584886 -53.606163 -136.069567 -1.054451 -19.736164 0.807110 -3.357821 -5.357632 -12.216719 -7.125000 0.000000 0.000000 -24.718721 24.869843 -67.559290 -2.852148 12.381850 -3.016282 8.256875 10.605655 8.611216 7.125000 0.000000 0.000000 
11.091704 16.001540 29.725294 -176.840246 2.587501 -133.470020 6.313485 25.966003 -41.266149 4.201380 9.507195 31.796255 9.956652 -15.529956 14.147561 0.363400 3.872400 10.718100 -7.920166 -10.636652 -38.491193 -3.132804 -10.084240 30.860563 1.163033 -6.766834 -7.969355 -3.845700 11.952200 -35.563300 0.627102 10.514355 -2.117530 -11.624456 7.479328 -6.474288 2.858438 -9.066817 7.858443 -2.441500 -4.267200 -0.262000 75.879342 -53.989870 -136.898227 -0.954171 -20.487140 0.644584 -3.273341 -5.541605 -13.480817 -7.125000 0.000000 0.000000 -24.738203 25.543398 -67.411632 -3.145067 12.780609 -3.147891 8.256907 10.540613 8.333269 7.125000 0.000000 0.000000 
